<?xml version="1.0" encoding="UTF-8"?>
<svg width="800" height="800" version="1.1" viewBox="0 0 800 800" xmlns="http://www.w3.org/2000/svg">
 <g fill="#00A7E1">
  <path d="m400 100v200h-100v-100h-100v100h100v100h-200v100h200v200h100v-200h200v-100h-200v-100h100v-100h-100v-100z"/>
  <path d="m400 400c0 55.228-44.772 100-100 100s-100-44.772-100-100 44.772-100 100-100h100z"/>
  <path d="m500 400c0 55.228 44.772 100 100 100s100-44.772 100-100-44.772-100-100-100h-100z"/>
  <path d="m400 500c-55.228 0-100 44.772-100 100s44.772 100 100 100 100-44.772 100-100v-100z"/>
 </g>
</svg>