<?xml version="1.0" encoding="UTF-8"?>
<svg id="Capa_2" xmlns="http://www.w3.org/2000/svg" version="1.1" viewBox="0 0 582.29 562.82">
  <!-- Generator: Adobe Illustrator 29.4.0, SVG Export Plug-In . SVG Version: 2.1.0 Build 152)  -->
  <defs>
    <style>
      .st0 {
        fill: #00a0df;
      }
    </style>
  </defs>
  <g id="Capa_1-2">
    <g>
      <path class="st0" d="M468.28,455.39c-2.16,4.73-2.96,10.26-5.41,15.69-4.51,10.07-14.91,16.79-26.96,18.64,5.62-9.75,14.09-18.63,20.11-29.43,6.12-10.97,11.26-22.86,15.21-35.8,9.89-10.8,23.03-15.06,35.31-21.08,22.85-11.22,41.62-30.13,49.04-56.4,3.51-12.43,2.79-26.91,9.81-39.23,2.73-4.79,7-8.2,9.81-13.74-22.16,1.05-37.13,9.3-51.5,18.14-18.43,14.95-34.17,34.81-38.25,64.25-1.24,8.9-.4,21.47-7.85,25.5,4.39-22.5,3.54-46.49,1.47-68.66,16.32-9.39,30.36-23.52,37.27-41.19,3.22-8.26,3.7-16.67,6.38-25.99,4.87-16.94,14.05-29.96,25.01-42.17-44.62-5.49-78.89,23.23-88.27,56.4-1.72,6.08-3.01,11.77-3.43,17.65-.95,13.32,3.05,23.21,5.4,32.37,7.64,29.86,3.43,62.03-4.41,88.28-7.7,25.7-22.17,47.41-37.28,64.24-30.01,33.46-82.33,61.8-145.16,55.42-60.21-6.12-101.84-35.07-128.49-74.54-19.52-28.92-34.71-73.17-27.46-121.13,1.95-12.91,8.37-27.28,6.87-44.14-2.12-23.82-14.22-43.01-29.43-55.42-15.31-12.5-36.67-22.32-62.77-18.14,3.02,4.38,6.8,7.7,9.81,11.77,6.5,8.8,11.33,19.29,14.72,30.41,1.73,5.7,2.53,11.64,4.41,18.14,5.25,18.18,14.82,29.97,27.46,40.21,4.26,3.45,12.32,6.92,13.24,9.81,1.25,3.91-1.03,12.46-1.47,17.66-1.6,18.66.38,34.63,3.44,51.01-8.87-5.76-7.08-17.95-8.34-26.49-1.44-9.77-4.76-18.74-8.34-26.48-14.14-30.57-41.22-51.25-81.9-55.42,3.45,6.34,6.89,8.97,9.8,14.23,7.46,13.43,6.52,28.96,10.79,42.17,8.34,25.78,27,44.64,51.5,54.44,10.52,4.2,27.95,11.68,32.86,20.6,3.07,5.57,4.18,12.49,6.86,18.14,5.5,11.55,11.31,22.52,18.15,31.88,3.52,4.82,8.23,9.06,9.81,14.23-11.26-1.73-18.75-7.07-24.02-14.72-5.02-7.26-6.39-16.84-10.79-24.52-3.17-5.51-6.33-11.18-11.28-16.18-3.67-3.71-8.9-8.65-14.22-11.77-22-12.9-60.51-13.84-78.96,4.9,18.1,8.69,33.55,18.1,44.63,33.83,3.04,4.32,4.76,8.15,7.85,11.77,18.81,22.12,57.13,41.94,95.63,25.5,15.64,14.69,34.64,28.69,57.38,38.74,22.2,9.82,49.31,17.87,78.96,16.68,60.54-2.42,104.2-25.59,136.33-56.9,11.4,4.62,26.66,7.46,42.18,5.4,22.19-2.95,44.72-18.05,54.92-32.86,3.63-5.25,5.79-9.82,9.33-14.22,6.92-8.62,15.78-16.95,25.49-22.56,4.84-2.8,11.13-3.6,15.69-8.34-10.13-8.05-22.99-12.94-37.28-13.73-34.96-1.94-58.9,19.51-69.63,43.15"/>
      <path class="st0" d="M189.46,494.26c22.87,17.88,51.44,31.38,87.9,34.4,50.71,4.2,92.79-14.98,121.82-40.13,29.96-25.96,50.56-62.28,53.99-108.93,1.84-24.9-1.95-48.6-9.55-69.27-12.74-34.61-33.39-64.01-69.28-74.53-4.85-1.43-12.04-1.71-17.2-3.83-6.67-2.73-8.67-11.52-6.21-17.68,2.12-5.32,8.81-9.21,15.29-8.6,6.24.58,9.18,8.33,13.85,11.46,21.26,14.21,50.14-5.34,45.39-30.1-4.29-22.42-33.99-39.99-60.68-39.65-16.64.21-31.7,6.15-45.38,14.62v-33.3h58.76v-57.62h-58.76V10.9h-58.76v60.2h-59.24v57.64h59.24v31.66c-28.48-21.85-74.74-11.55-92.69,8.52-4.33,4.84-9.53,12.4-10.51,21.02-2.76,24.19,23.59,40.86,43.96,29.14,6.45-3.71,9.94-10.72,15.29-11.94,17.25-3.94,23.28,20.66,9.08,25.8-5.23,1.89-10.91,1.73-15.29,2.87-34.36,8.85-53.53,34.13-67.36,63.06-7.9,16.51-13.56,37.67-14.33,60.19-1.28,36.92,8.47,68.36,22.45,91.73,10.64,17.78,22.64,31.3,38.22,43.48M290.75,485.49c-1.5-.01-2.98-.06-4.44-.12.57-1.32.89-2.78.89-4.31,0-6.01-4.89-10.9-10.9-10.9s-10.9,4.89-10.9,10.9c0,.49.04.96.11,1.43-2.44-.58-4.8-1.23-7.1-1.93-.26-5.78-5.03-10.4-10.87-10.4-2.9,0-5.54,1.15-7.49,3.01-10.65-5.38-18.94-11.56-24.61-16.48-.11-.09-.2-.19-.31-.28.02-.3.05-.59.05-.9,0-6.01-4.89-10.9-10.9-10.9-.27,0-.53.02-.79.04-2.01-2.36-3.89-4.78-5.66-7.27,1.82-1.95,2.94-4.55,2.94-7.42,0-6.01-4.89-10.9-10.9-10.9-.79,0-1.56.09-2.3.25-1.29-2.92-2.43-5.92-3.46-8.98,1.11-1.71,1.76-3.74,1.76-5.92,0-4.14-2.32-7.75-5.73-9.59-.8-4.35-1.39-8.81-1.73-13.4-.43-5.86-.42-11.74,0-17.56,4.69-1.21,8.18-5.47,8.18-10.54,0-3.86-2.02-7.25-5.06-9.18.62-2.51,1.34-4.99,2.13-7.43,1.79,1.29,3.98,2.06,6.34,2.06,6.01,0,10.9-4.89,10.9-10.9,0-5.41-3.97-9.9-9.15-10.74,1.47-2.87,2.93-5.42,4.38-7.69,2,2.26,4.91,3.69,8.16,3.69,6.01,0,10.9-4.89,10.9-10.9,0-3.44-1.61-6.51-4.11-8.51,2.44-1.47,4.55-2.27,6.19-2.8.44-.08.89-.15,1.35-.22,5.42-.89,13.35-2.21,22.2-5.47,1.86,1.47,4.19,2.35,6.74,2.35,6.01,0,10.9-4.89,10.9-10.9,0-.2-.02-.4-.03-.6,8.76-6.14,15.98-14,21.41-22.94.94,5.05,5.38,8.89,10.71,8.89s10.1-4.15,10.79-9.49c5.43,9.14,12.73,17.17,21.61,23.43-.02.24-.04.48-.04.72,0,6.01,4.89,10.9,10.9,10.9,2.57,0,4.93-.9,6.79-2.39,8.9,3.29,16.88,4.62,22.32,5.51.46.07.91.14,1.35.22,1.58.51,3.6,1.27,5.93,2.64-2.62,1.99-4.32,5.13-4.32,8.67,0,6.01,4.89,10.9,10.9,10.9,3.4,0,6.43-1.56,8.43-4.01,1.49,2.32,3,4.93,4.52,7.89-5.26.77-9.32,5.3-9.32,10.77,0,6.01,4.89,10.9,10.9,10.9,2.44,0,4.69-.82,6.51-2.18.8,2.46,1.52,4.95,2.15,7.47-3.19,1.9-5.34,5.38-5.34,9.36,0,5.19,3.65,9.53,8.51,10.62.42,5.79.43,11.64,0,17.47-.32,4.41-.88,8.69-1.63,12.88-4.02,1.61-6.87,5.53-6.87,10.12,0,2.61.93,5.01,2.46,6.89-.95,2.75-2,5.45-3.16,8.09-.84-.21-1.72-.33-2.62-.33-6.01,0-10.9,4.89-10.9,10.9,0,2.98,1.2,5.67,3.14,7.64-1.73,2.43-3.58,4.79-5.53,7.09-.41-.05-.82-.08-1.24-.08-6.01,0-10.9,4.89-10.9,10.9,0,.44.03.86.08,1.29-5.69,4.92-13.97,11.07-24.59,16.42-1.96-1.89-4.62-3.06-7.55-3.06-5.86,0-10.64,4.65-10.87,10.45-2.29.7-4.65,1.34-7.08,1.91.06-.48.11-.97.11-1.46,0-6.01-4.89-10.9-10.89-10.9s-10.9,4.89-10.9,10.9c0,1.53.32,2.99.9,4.32-1.42.06-2.85.11-4.3.12M290.8,221.46c.84,7,2.61,13.82,5.21,20.28-1.61-.93-3.46-1.47-5.45-1.47-1.75,0-3.39.42-4.86,1.15,2.53-6.36,4.25-13.07,5.08-19.96h0"/>
      <path class="st0" d="M305.04,287.57c6.01,0,10.9-4.89,10.9-10.9s-4.89-10.9-10.9-10.9-10.9,4.89-10.9,10.9,4.89,10.9,10.9,10.9"/>
      <path class="st0" d="M276.3,287.57c6.01,0,10.9-4.89,10.9-10.9s-4.89-10.9-10.9-10.9-10.9,4.89-10.9,10.9,4.89,10.9,10.9,10.9"/>
      <path class="st0" d="M233.01,313.12c6.01,0,10.9-4.89,10.9-10.9s-4.89-10.9-10.9-10.9-10.9,4.89-10.9,10.9,4.89,10.9,10.9,10.9"/>
      <path class="st0" d="M348,313.12c6.01,0,10.9-4.89,10.9-10.9s-4.89-10.9-10.9-10.9-10.9,4.89-10.9,10.9,4.89,10.9,10.9,10.9"/>
      <path class="st0" d="M308.36,302.22c0,6.01,4.89,10.9,10.9,10.9s10.9-4.89,10.9-10.9-4.89-10.9-10.9-10.9-10.9,4.89-10.9,10.9"/>
      <path class="st0" d="M279.62,302.22c0,6.01,4.89,10.9,10.9,10.9s10.9-4.89,10.9-10.9-4.89-10.9-10.9-10.9-10.9,4.89-10.9,10.9"/>
      <path class="st0" d="M261.77,313.12c6.01,0,10.9-4.89,10.9-10.9s-4.89-10.9-10.9-10.9-10.9,4.89-10.9,10.9,4.89,10.9,10.9,10.9"/>
      <path class="st0" d="M237.66,323.19c-.68,1.42-1.07,3-1.07,4.67,0,6.01,4.89,10.9,10.9,10.9,4.51,0,8.39-2.75,10.04-6.67.58-1.33.9-2.79.9-4.32,0-6.01-4.89-10.9-10.9-10.9-4.37,0-8.14,2.59-9.88,6.32"/>
      <path class="st0" d="M218.73,338.76c3.77,0,7.1-1.92,9.05-4.84,1.2-1.75,1.91-3.87,1.91-6.15,0-6.01-4.89-10.9-10.9-10.9-3.77,0-7.1,1.93-9.06,4.85-1.2,1.75-1.9,3.86-1.9,6.14,0,6.01,4.89,10.9,10.9,10.9"/>
      <path class="st0" d="M351.63,327.77c0,6.01,4.89,10.9,10.9,10.9s10.9-4.89,10.9-10.9-4.89-10.9-10.9-10.9-10.9,4.89-10.9,10.9"/>
      <path class="st0" d="M322.89,327.77c0,6.01,4.89,10.9,10.9,10.9s10.9-4.89,10.9-10.9-4.89-10.9-10.9-10.9-10.9,4.89-10.9,10.9"/>
      <path class="st0" d="M305.04,316.87c-6.01,0-10.9,4.89-10.9,10.9s4.89,10.9,10.9,10.9,10.9-4.89,10.9-10.9-4.89-10.9-10.9-10.9"/>
      <path class="st0" d="M276.3,316.87c-3.77,0-7.1,1.93-9.06,4.85-1.2,1.75-1.9,3.86-1.9,6.14,0,6.01,4.89,10.9,10.9,10.9,3.77,0,7.1-1.93,9.06-4.85,1.2-1.75,1.9-3.86,1.9-6.14,0-6.01-4.89-10.9-10.9-10.9"/>
      <path class="st0" d="M365.85,353.32c0,6.01,4.89,10.9,10.9,10.9s10.9-4.89,10.9-10.9-4.89-10.9-10.9-10.9-10.9,4.89-10.9,10.9"/>
      <path class="st0" d="M243.9,353.32c0-6.01-4.89-10.9-10.9-10.9s-10.9,4.89-10.9,10.9,4.89,10.9,10.9,10.9,10.9-4.89,10.9-10.9"/>
      <path class="st0" d="M204.26,364.21h.15c6.01,0,10.9-4.89,10.9-10.9s-4.89-10.9-10.9-10.9h-.15c-6.01,0-10.9,4.89-10.9,10.9s4.89,10.9,10.9,10.9"/>
      <path class="st0" d="M348,342.42c-6.01,0-10.9,4.89-10.9,10.9s4.89,10.9,10.9,10.9,10.9-4.89,10.9-10.9-4.89-10.9-10.9-10.9"/>
      <path class="st0" d="M319.26,342.42c-6.01,0-10.9,4.89-10.9,10.9s4.89,10.9,10.9,10.9,10.9-4.89,10.9-10.9-4.89-10.9-10.9-10.9"/>
      <path class="st0" d="M279.62,353.32c0,6.01,4.89,10.9,10.9,10.9s10.9-4.89,10.9-10.9-4.89-10.9-10.9-10.9-10.9,4.89-10.9,10.9"/>
      <path class="st0" d="M250.87,353.32c0,6.01,4.89,10.9,10.9,10.9s10.9-4.89,10.9-10.9-4.89-10.9-10.9-10.9-10.9,4.89-10.9,10.9"/>
      <path class="st0" d="M380.37,378.86c0,6.01,4.89,10.9,10.9,10.9s10.9-4.89,10.9-10.9-4.89-10.9-10.9-10.9-10.9,4.89-10.9,10.9"/>
      <path class="st0" d="M258.43,378.86c0-6.01-4.89-10.9-10.9-10.9s-10.9,4.89-10.9,10.9,4.89,10.9,10.9,10.9,10.9-4.89,10.9-10.9"/>
      <path class="st0" d="M218.93,367.97h0c-6.01,0-10.9,4.89-10.9,10.9s4.89,10.89,10.9,10.89h.03c6.01,0,10.9-4.89,10.9-10.89s-4.89-10.9-10.9-10.9h0"/>
      <path class="st0" d="M201.09,378.86c0-6.01-4.89-10.9-10.9-10.9s-10.9,4.89-10.9,10.9,4.89,10.9,10.9,10.9,10.9-4.89,10.9-10.9"/>
      <path class="st0" d="M373.42,378.86c0-6.01-4.89-10.9-10.9-10.9s-10.9,4.89-10.9,10.9,4.89,10.9,10.9,10.9,10.9-4.89,10.9-10.9"/>
      <path class="st0" d="M322.89,378.86c0,6.01,4.89,10.9,10.9,10.9s10.9-4.89,10.9-10.9-4.89-10.9-10.9-10.9-10.9,4.89-10.9,10.9"/>
      <path class="st0" d="M315.94,378.86c0-6.01-4.89-10.9-10.9-10.9s-10.9,4.89-10.9,10.9,4.89,10.9,10.9,10.9,10.9-4.89,10.9-10.9"/>
      <path class="st0" d="M287.19,378.86c0-6.01-4.89-10.9-10.9-10.9s-10.9,4.89-10.9,10.9,4.89,10.9,10.9,10.9,10.9-4.89,10.9-10.9"/>
      <path class="st0" d="M376.74,393.51c-6.01,0-10.9,4.89-10.9,10.9s4.89,10.9,10.9,10.9,10.9-4.89,10.9-10.9-4.89-10.9-10.9-10.9"/>
      <path class="st0" d="M233.01,415.31c6.01,0,10.9-4.89,10.9-10.9s-4.89-10.9-10.9-10.9-10.9,4.89-10.9,10.9,4.89,10.9,10.9,10.9"/>
      <path class="st0" d="M215.16,404.41c0-6.01-4.89-10.9-10.9-10.9-.1,0-.19.01-.28.01s-.19-.01-.28-.01c-6.01,0-10.9,4.89-10.9,10.9s4.89,10.9,10.9,10.9c.09,0,.19-.01.28-.01s.19.01.28.01c6.01,0,10.9-4.89,10.9-10.9"/>
      <path class="st0" d="M337.1,404.41c0,6.01,4.89,10.9,10.9,10.9s10.9-4.89,10.9-10.9-4.89-10.9-10.9-10.9-10.9,4.89-10.9,10.9"/>
      <path class="st0" d="M319.26,415.31c6.01,0,10.9-4.89,10.9-10.9s-4.89-10.9-10.9-10.9-10.9,4.89-10.9,10.9,4.89,10.9,10.9,10.9"/>
      <path class="st0" d="M290.51,415.31c6.01,0,10.9-4.89,10.9-10.9s-4.89-10.9-10.9-10.9-10.9,4.89-10.9,10.9,4.89,10.9,10.9,10.9"/>
      <path class="st0" d="M261.77,415.31c6.01,0,10.9-4.89,10.9-10.9s-4.89-10.9-10.9-10.9-10.9,4.89-10.9,10.9,4.89,10.9,10.9,10.9"/>
      <path class="st0" d="M258.43,429.96c0-6.01-4.89-10.9-10.9-10.9s-10.9,4.89-10.9,10.9,4.89,10.9,10.9,10.9,10.9-4.89,10.9-10.9"/>
      <path class="st0" d="M229.69,429.96c0-6.01-4.89-10.9-10.9-10.9h-.2c-6.01,0-10.9,4.89-10.9,10.9s4.89,10.9,10.9,10.9h.2c6.01,0,10.9-4.89,10.9-10.9"/>
      <path class="st0" d="M362.53,419.06c-6.01,0-10.9,4.89-10.9,10.9s4.89,10.9,10.9,10.9,10.9-4.89,10.9-10.9-4.89-10.9-10.9-10.9"/>
      <path class="st0" d="M344.68,429.96c0-6.01-4.89-10.9-10.9-10.9s-10.9,4.89-10.9,10.9,4.89,10.9,10.9,10.9,10.9-4.89,10.9-10.9"/>
      <path class="st0" d="M315.94,429.96c0-6.01-4.89-10.9-10.9-10.9s-10.9,4.89-10.9,10.9,4.89,10.9,10.9,10.9,10.9-4.89,10.9-10.9"/>
      <path class="st0" d="M287.19,429.96c0-6.01-4.89-10.9-10.9-10.9s-10.9,4.89-10.9,10.9,4.89,10.9,10.9,10.9,10.9-4.89,10.9-10.9"/>
      <path class="st0" d="M233.01,444.61c-6.01,0-10.9,4.89-10.9,10.9s4.89,10.9,10.9,10.9,10.9-4.89,10.9-10.9-4.89-10.9-10.9-10.9"/>
      <path class="st0" d="M348,444.61c-6.01,0-10.9,4.89-10.9,10.9s4.89,10.9,10.9,10.9,10.9-4.89,10.9-10.9-4.89-10.9-10.9-10.9"/>
      <path class="st0" d="M319.26,444.61c-6.01,0-10.9,4.89-10.9,10.9s4.89,10.9,10.9,10.9,10.9-4.89,10.9-10.9-4.89-10.9-10.9-10.9"/>
      <path class="st0" d="M301.41,455.51c0-6.01-4.89-10.9-10.9-10.9s-10.9,4.89-10.9,10.9,4.89,10.9,10.9,10.9,10.9-4.89,10.9-10.9"/>
      <path class="st0" d="M261.77,444.61c-6.01,0-10.9,4.89-10.9,10.9s4.89,10.9,10.9,10.9,10.9-4.89,10.9-10.9-4.89-10.9-10.9-10.9"/>
    </g>
  </g>
</svg>